<svg xmlns="http://www.w3.org/2000/svg" xmlns:xlink="http://www.w3.org/1999/xlink" version="1.1" id="Layer_1" x="0px" y="0px" viewBox="0 0 512 512" style="enable-background:new 0 0 512 512;" xml:space="preserve">
<style type="text/css">
	.st0{fill:#C1E8F7;}
	.st1{fill:#906A5D;}
	.st2{fill:#FFDDCA;}
	.st3{fill:#FFE6D3;}
	.st4{fill:#F4F4F4;}
	.st5{fill:#08232D;}
	.st6{fill:#13323D;}
	.st7{fill:#021A21;}
</style>
<circle id="XMLID_8256_" class="st0" cx="256.0888" cy="255.7101" r="248.8167"/>
<g id="XMLID_7217_">
	<path id="XMLID_7228_" class="st1" d="M190.9892,337.4511c6.1273-5.1997,9.6664-3.8266,9.6664-3.8266s-0.6098,0.2568-1.4045,0.9901   c0.1743-0.1047,0.3319-0.2042,0.5095-0.309c21.6075-12.9609,23.721-34.0086,23.8091-46.238   c-2.4102-1.897-4.7505-3.8806-6.9557-6.0107c-15.2841-14.7569-15.1524-52.0445-18.8418-49.4104   c-8.4324,5.6659-13.8348-11.1993-14.889-21.212c-0.6471-6.148,0.8325-10.083,3.0411-11.25   c1.2003-0.2405,2.1886-0.1987,3.0215,0.0215c0.5535,0.2694,1.113,0.6597,1.6676,1.2144c0.6098,0.6105,1.113,0.9864,1.5647,1.2484   c1.1814,1.7216,1.7109,3.5968,2.7432,3.3241c7.3479-1.9366,23.6041-16.4008,41.8353-30.9065   c23.025-18.3197,36.6941-23.3784,50.6607-24.959c0,0,1.1281,7.8463,15.0947,19.4415   c13.9662,11.5952,17.5815,36.424,20.4801,34.5814c1.7734-1.1293,4.0353,0.4714,5.5275-4.0597   c3.4806-1.2539,6.5258,2.9845,5.6455,11.344c-1.0538,10.0127-6.4562,26.8779-14.8893,21.212   c-3.6893-2.634-3.5572,34.6535-18.841,49.4104c-1.0974,1.059-2.2174,2.0938-3.363,3.1003   c-1.1563,1.0172-2.3832,1.9496-3.5935,2.9034c0.0869,12.2275,2.1971,33.2823,23.8094,46.245   c0.1732,0.1032,0.3286,0.1969,0.4988,0.3001c-0.79-0.7281-1.3942-0.9812-1.3942-0.9812s3.5395-1.3731,9.6671,3.8266   c1.7771,1.5085,5.2145,3.7689,8.714,6.9883c3.8332,1.4689,12.3666,4.493,22.2228,8.0198   c5.3173-8.5475,7.0863-18.6086-1.9803-28.305c-25.7912-27.5842,3.1954-23.6747,1.9706-53.9056   c-0.7785-19.2336-21.4147-26.4568-14.869-47.0402c10.4134-32.7439-5.2333-90.0095-29.903-99.6374   c-58.4015-39.3526-114.8402-18.2545-134.4393,34.9628c-20.5193,55.7157,14.771,63.2549-10.789,88.8137   c-8.4176,8.4191-11.395,21.7215-8.0302,30.2941c6.5376,16.6502,22.3205,33.6183,11.2548,44.126   c-11.0161,10.4586-18.5002,19.564-12.8229,31.3546c10.8985-3.9098,20.7458-7.3875,25.3867-9.1398   C186.0981,341.0068,189.2965,338.8875,190.9892,337.4511z"/>
	<path id="XMLID_7227_" class="st2" d="M315.5864,384.0739l0.0733,0.0544c0.0289-0.0218,0.0596-0.0437,0.0892-0.0651   C315.6489,384.0683,315.5864,384.0739,315.5864,384.0739z"/>
	<path id="XMLID_7226_" class="st2" d="M205.95,372.1083c3.4762,4.9288,9.0289,13.9022,15.2505,24.7729   c13.295,6.9683,26.859,11.2755,37.3235,11.2755c10.3531,0,23.9988-4.3668,37.4067-11.4217   c6.1883-10.8056,11.7069-19.7198,15.1672-24.6267c13.9636-19.8045,10.5918-27.5787,10.167-30.0862   c-0.7074-4.177-2.3033-6.336-3.4784-7.4164c-0.1702-0.1032-0.3256-0.1968-0.4988-0.3001   c-21.6123-12.9627-23.7225-34.0175-23.8094-46.245c-2.5101,1.9747-5.0938,3.8554-7.8508,5.4687   c-3.4847,2.0417-7.1733,3.7345-11.0198,4.9721c-3.4947,1.1218-7.1071,1.8607-10.759,2.2293   c-4.5359,0.4588-9.1942,0.3197-13.6994-0.3937c-3.6993-0.5872-7.3302-1.5755-10.8163-2.9449   c-3.9124-1.5378-7.6288-3.5432-11.1238-5.8734c-1.6043-1.0697-3.1243-2.2585-4.6395-3.451   c-0.0881,12.2294-2.2015,33.2771-23.8091,46.238c-0.1776,0.1047-0.3352,0.2043-0.5095,0.309   c-1.1744,1.086-2.7625,3.2431-3.468,7.4075C195.359,344.5296,191.9864,352.3038,205.95,372.1083z"/>
	<path id="XMLID_7225_" class="st3" d="M239.3329,297.3922c3.4862,1.3694,7.117,2.3577,10.8163,2.9449   c4.5052,0.7134,9.1635,0.8525,13.6994,0.3937c3.6519-0.3685,7.2643-1.1075,10.759-2.2293   c3.8466-1.2377,7.5352-2.9305,11.0198-4.9721c2.7569-1.6132,5.3407-3.494,7.8508-5.4687c1.2103-0.9539,2.4372-1.8863,3.5935-2.9034   c1.1455-1.0064,2.2655-2.0413,3.363-3.1003c15.2838-14.7569,15.1517-52.0445,18.841-49.4104   c8.4331,5.6659,13.8356-11.1993,14.8893-21.212c0.8802-8.3595-2.1649-12.5979-5.6455-11.344   c-1.4922,4.5311-3.7541,2.9304-5.5275,4.0597c-2.8986,1.8426-6.5139-22.9862-20.4801-34.5814   c-13.9666-11.5952-15.0947-19.4415-15.0947-19.4415c-13.9666,1.5807-27.6357,6.6394-50.6607,24.959   c-18.2312,14.5057-34.4874,28.9699-41.8353,30.9065c-1.0323,0.2727-1.5618-1.6025-2.7432-3.3241   c-0.4518-0.262-0.955-0.6379-1.5647-1.2484c-0.5546-0.5546-1.1141-0.945-1.6676-1.2144c-0.8329-0.2202-1.8212-0.262-3.0215-0.0215   c-2.2086,1.167-3.6882,5.102-3.0411,11.25c1.0541,10.0127,6.4566,26.8779,14.889,21.212   c3.6893-2.634,3.5576,34.6535,18.8418,49.4104c2.2052,2.1301,4.5455,4.1137,6.9557,6.0107   c1.5152,1.1925,3.0352,2.3813,4.6395,3.451C231.7042,293.849,235.4205,295.8544,239.3329,297.3922z"/>
	<path id="XMLID_7224_" class="st4" d="M315.6597,384.1283l0.282,0.2131c0.0766-0.1047,0.1472-0.2043,0.2231-0.3071   c-0.1787,0.0126-0.3208,0.0215-0.4159,0.0289C315.7192,384.0846,315.6885,384.1064,315.6597,384.1283z"/>
	<path id="XMLID_7223_" class="st4" d="M221.2005,396.8812c15.5087,27.0965,35.1882,66.0354,37.3235,83.8907   c2.139-17.8879,21.885-56.9333,37.4067-84.0369c-13.4079,7.0549-27.0536,11.4217-37.4067,11.4217   C248.0595,408.1567,234.4955,403.8495,221.2005,396.8812z"/>
	<path id="XMLID_7222_" class="st5" d="M403.6697,370.8255c0.1928-0.0847,0.3963-0.0903,0.6079-0.0396   c-4.806-3.0244-28.4344-11.586-47.2814-18.3267c-9.8562-3.5269-18.3896-6.5509-22.2228-8.0198   c2.6133,2.4047,5.2603,5.3258,7.2857,8.95c7.0564,12.6268,7.4397,20.3702,12.427,24.0829   c4.6528,3.4636-33.2168,6.2079-38.3214,6.562c-0.0759,0.1029-0.1465,0.2024-0.2231,0.3071l27.29,20.5996   c0,0-30.9712,35.4194-51.9168,50.6858c-6.4865,4.7279-12.8765,13.4667-18.222,19.4504c-6.1606,6.8943-6.918,10.7804-11.903,18.9627   c0,0-0.0004,0-0.0011,0c0.7914,3.5358,1.5178,6.8691,1.766,8.6774c0.077,0.5583,0.1421,1.0915,0.2094,1.6299   c38.4461-1.0767,74.6936-10.8563,106.8695-27.4669C370.6183,452.9439,369.7821,385.821,403.6697,370.8255z"/>
	<path id="XMLID_7221_" class="st6" d="M261.1887,494.0399c-5.8335-5.0894-11.0728-12.0684-17.2337-18.9627   c-5.3451-5.9837-11.7351-14.7225-18.2216-19.4504c-20.946-15.2664-51.9164-50.6858-51.9164-50.6858l27.6449-20.8671   c0,0-43.887-2.889-38.8997-6.6016c4.9869-3.7126,5.3702-11.4561,12.4266-24.0829c2.1549-3.8554,5.0132-6.9232,7.786-9.407   c-4.641,1.7523-14.4883,5.23-25.3867,9.1398c-19.7116,7.0712-42.7684,15.5228-44.2814,17.6022   c-0.1902,0.2601-0.3578,0.5672-0.5213,0.8817c0.6323-0.6956,1.2151-1.0064,1.7257-0.7807   c35.4438,15.6837,32.9008,88.4019,33.7292,109.0755c32.6781,15.7777,69.3292,24.6249,108.0483,24.6249   c2.3732,0,4.7183-0.1121,7.0756-0.1787c-0.0673-0.5384-0.1324-1.0715-0.2094-1.6299   C262.7065,500.9091,261.9802,497.5757,261.1887,494.0399z"/>
	<path id="XMLID_7220_" class="st7" d="M316.3923,333.6245c0,0,0.6042,0.2531,1.3942,0.9812   c1.1751,1.0804,2.771,3.2394,3.4784,7.4164c0.4248,2.5075,3.7966,10.2817-10.167,30.0862   c-3.4603,4.907-8.9789,13.8211-15.1672,24.6267c-15.5217,27.1036-35.2677,66.149-37.4067,84.0369   c-2.1353-17.8553-21.8147-56.7942-37.3235-83.8907c-6.2216-10.8708-11.7743-19.8441-15.2505-24.7729   c-13.9636-19.8045-10.591-27.5787-10.167-30.0862c0.7056-4.1644,2.2937-6.3215,3.468-7.4075   c0.7948-0.7333,1.4045-0.9901,1.4045-0.9901s-3.5391-1.3731-9.6664,3.8266c-1.6928,1.4364-4.8911,3.5558-8.2145,6.5313   c-2.7728,2.4838-5.6311,5.5515-7.786,9.407c-7.0564,12.6268-7.4397,20.3702-12.4266,24.0829   c-4.9873,3.7126,38.8997,6.6016,38.8997,6.6016L173.817,404.941c0,0,30.9705,35.4194,51.9164,50.6858   c6.4866,4.7279,12.8765,13.4667,18.2216,19.4504c6.1609,6.8943,11.4002,13.8733,17.2337,18.9627c0.0007,0,0.0011,0,0.0011,0   c4.9851-8.1823,5.7425-12.0684,11.903-18.9627c5.3455-5.9837,11.7354-14.7225,18.222-19.4504   c20.9456-15.2664,51.9168-50.6858,51.9168-50.6858l-27.29-20.5996l-0.282-0.2131l-0.0733-0.0544c0,0,0.0625-0.0056,0.1624-0.0107   c0.0951-0.0074,0.2372-0.0163,0.4159-0.0289c5.1046-0.3541,42.9742-3.0984,38.3214-6.562   c-4.9873-3.7126-5.3706-11.4561-12.427-24.0829c-2.0254-3.6242-4.6724-6.5454-7.2857-8.95   c-3.4995-3.2194-6.9369-5.4798-8.714-6.9883C319.9317,332.2514,316.3923,333.6245,316.3923,333.6245z"/>
	<path id="XMLID_7219_" class="st7" d="M404.2776,370.7859c-0.2116-0.0507-0.4151-0.0452-0.6079,0.0396   c-33.8876,14.9955-33.0514,82.1184-33.636,106.0547c20.0335-10.3431,38.4904-23.2951,54.8931-38.4601   C416.8737,401.6021,408.6577,371.8338,404.2776,370.7859z"/>
	<path id="XMLID_7218_" class="st7" d="M114.311,370.8255c-0.5106-0.2257-1.0934,0.0851-1.7257,0.7807   c-4.7642,5.2463-12.7629,35.324-20.4746,71.1589c16.8071,14.7462,35.5767,27.3078,55.9295,37.1359   C147.2118,459.2274,149.7548,386.5092,114.311,370.8255z"/>
</g>
</svg>